G04 (created by PCBNEW-RS274X (2012-01-19 BZR 3256)-stable) date 4/5/2013 11:46:11 PM*
G01*
G70*
G90*
%MOIN*%
G04 Gerber Fmt 3.4, Leading zero omitted, Abs format*
%FSLAX34Y34*%
G04 APERTURE LIST*
%ADD10C,0.006000*%
%ADD11R,0.075000X0.075000*%
%ADD12C,0.075000*%
%ADD13R,0.090000X0.320000*%
%ADD14C,0.179400*%
%ADD15R,0.080000X0.080000*%
%ADD16C,0.080000*%
%ADD17O,0.080000X0.080000*%
G04 APERTURE END LIST*
G54D10*
G54D11*
X66000Y-46500D03*
G54D12*
X67000Y-46500D03*
X68000Y-46500D03*
X69000Y-46500D03*
X70000Y-46500D03*
X71000Y-46500D03*
X72000Y-46500D03*
X73000Y-46500D03*
X74000Y-46500D03*
X75000Y-46500D03*
X76000Y-46500D03*
X77000Y-46500D03*
X78000Y-46500D03*
X79000Y-46500D03*
X79000Y-40500D03*
X78000Y-40500D03*
X77000Y-40500D03*
X76000Y-40500D03*
X75000Y-40500D03*
X74000Y-40500D03*
X73000Y-40500D03*
X72000Y-40500D03*
X71000Y-40500D03*
X70000Y-40500D03*
X69000Y-40500D03*
X68000Y-40500D03*
X67000Y-40500D03*
X66000Y-40500D03*
X44500Y-31000D03*
X44500Y-28000D03*
X67500Y-20500D03*
X70500Y-20500D03*
X70500Y-22500D03*
X67500Y-22500D03*
X71000Y-47500D03*
X68000Y-47500D03*
X67500Y-21500D03*
X70500Y-21500D03*
X65000Y-36500D03*
X68000Y-36500D03*
X67500Y-27750D03*
X70500Y-27750D03*
X67500Y-30250D03*
X70500Y-30250D03*
X67500Y-32750D03*
X70500Y-32750D03*
X58250Y-47500D03*
X58250Y-44500D03*
X45500Y-31000D03*
X45500Y-28000D03*
X78000Y-47500D03*
X75000Y-47500D03*
X74000Y-38500D03*
X71000Y-38500D03*
X74000Y-39500D03*
X71000Y-39500D03*
X67500Y-19500D03*
X70500Y-19500D03*
X42000Y-37000D03*
X45000Y-37000D03*
G54D11*
X54500Y-22500D03*
G54D12*
X55500Y-22500D03*
X56500Y-22500D03*
X57500Y-22500D03*
X58500Y-22500D03*
X59500Y-22500D03*
X60500Y-22500D03*
X61500Y-22500D03*
X62500Y-22500D03*
X63500Y-22500D03*
X63500Y-19500D03*
X62500Y-19500D03*
X61500Y-19500D03*
X60500Y-19500D03*
X59500Y-19500D03*
X58500Y-19500D03*
X57500Y-19500D03*
X56500Y-19500D03*
X55500Y-19500D03*
X54500Y-19500D03*
G54D11*
X42500Y-22500D03*
G54D12*
X43500Y-22500D03*
X44500Y-22500D03*
X45500Y-22500D03*
X46500Y-22500D03*
X47500Y-22500D03*
X48500Y-22500D03*
X49500Y-22500D03*
X50500Y-22500D03*
X51500Y-22500D03*
X51500Y-19500D03*
X50500Y-19500D03*
X49500Y-19500D03*
X48500Y-19500D03*
X47500Y-19500D03*
X46500Y-19500D03*
X45500Y-19500D03*
X44500Y-19500D03*
X43500Y-19500D03*
X42500Y-19500D03*
G54D11*
X54500Y-26500D03*
G54D12*
X55500Y-26500D03*
X56500Y-26500D03*
X57500Y-26500D03*
X58500Y-26500D03*
X59500Y-26500D03*
X60500Y-26500D03*
X61500Y-26500D03*
X62500Y-26500D03*
X63500Y-26500D03*
X63500Y-23500D03*
X62500Y-23500D03*
X61500Y-23500D03*
X60500Y-23500D03*
X59500Y-23500D03*
X58500Y-23500D03*
X57500Y-23500D03*
X56500Y-23500D03*
X55500Y-23500D03*
X54500Y-23500D03*
G54D11*
X42500Y-26500D03*
G54D12*
X43500Y-26500D03*
X44500Y-26500D03*
X45500Y-26500D03*
X46500Y-26500D03*
X47500Y-26500D03*
X48500Y-26500D03*
X49500Y-26500D03*
X50500Y-26500D03*
X51500Y-26500D03*
X51500Y-23500D03*
X50500Y-23500D03*
X49500Y-23500D03*
X48500Y-23500D03*
X47500Y-23500D03*
X46500Y-23500D03*
X45500Y-23500D03*
X44500Y-23500D03*
X43500Y-23500D03*
X42500Y-23500D03*
G54D11*
X44500Y-39000D03*
G54D12*
X42500Y-39000D03*
X63500Y-31250D03*
X65500Y-31250D03*
X65500Y-39500D03*
X67500Y-39500D03*
X65000Y-26000D03*
X65000Y-24000D03*
X53000Y-26000D03*
X53000Y-24000D03*
X53000Y-22000D03*
X53000Y-20000D03*
X44500Y-41000D03*
X42500Y-41000D03*
X44500Y-43000D03*
X42500Y-43000D03*
X65500Y-37500D03*
X67500Y-37500D03*
X42500Y-45000D03*
X44500Y-45000D03*
X44500Y-44000D03*
X42500Y-44000D03*
X72000Y-28000D03*
X74000Y-28000D03*
X62000Y-45000D03*
X62000Y-47000D03*
X60250Y-45000D03*
X60250Y-47000D03*
X59250Y-45000D03*
X59250Y-47000D03*
X42500Y-28500D03*
X42500Y-30500D03*
X43500Y-28500D03*
X43500Y-30500D03*
X72000Y-29000D03*
X74000Y-29000D03*
X72000Y-34000D03*
X74000Y-34000D03*
G54D13*
X71000Y-51375D03*
X70000Y-51375D03*
X69000Y-51375D03*
X62000Y-51375D03*
X61000Y-51375D03*
X60000Y-51375D03*
X59000Y-51375D03*
X58000Y-51375D03*
X53000Y-51375D03*
X44000Y-51375D03*
X43000Y-51375D03*
X42000Y-51375D03*
X41000Y-51375D03*
G54D14*
X77073Y-38539D03*
X77073Y-28701D03*
G54D15*
X76073Y-31911D03*
G54D16*
X76073Y-32813D03*
X76073Y-33718D03*
X76073Y-34620D03*
X76073Y-35522D03*
X77073Y-34169D03*
X77073Y-33268D03*
X77073Y-32366D03*
X77073Y-31464D03*
X77073Y-35071D03*
X78073Y-31911D03*
X78073Y-32813D03*
X78073Y-33718D03*
X78073Y-34620D03*
X78073Y-35522D03*
G54D12*
X49461Y-46000D03*
X47539Y-46000D03*
X65000Y-22000D03*
X65000Y-20000D03*
X51500Y-45000D03*
X51500Y-47000D03*
G54D11*
X43000Y-48250D03*
G54D12*
X41000Y-48250D03*
G54D11*
X72000Y-48250D03*
G54D12*
X74000Y-48250D03*
G54D11*
X69000Y-36500D03*
G54D12*
X71000Y-36500D03*
X72000Y-31500D03*
X74000Y-31500D03*
X72000Y-27000D03*
X74000Y-27000D03*
X72000Y-26000D03*
X74000Y-26000D03*
G54D17*
X72500Y-24000D03*
G54D16*
X73500Y-24000D03*
G54D12*
X67000Y-29000D03*
X71000Y-29000D03*
X67000Y-31500D03*
X71000Y-31500D03*
X67000Y-34000D03*
X71000Y-34000D03*
X71000Y-23750D03*
X67000Y-23750D03*
X71000Y-25125D03*
X67000Y-25125D03*
X71000Y-26500D03*
X67000Y-26500D03*
X45500Y-42000D03*
X41500Y-42000D03*
X41500Y-46000D03*
X45500Y-46000D03*
X65500Y-38500D03*
X69500Y-38500D03*
M02*
