G04 (created by PCBNEW-RS274X (2012-01-19 BZR 3256)-stable) date 4/5/2013 11:46:11 PM*
G01*
G70*
G90*
%MOIN*%
G04 Gerber Fmt 3.4, Leading zero omitted, Abs format*
%FSLAX34Y34*%
G04 APERTURE LIST*
%ADD10C,0.006000*%
%ADD11R,0.075000X0.075000*%
%ADD12C,0.075000*%
%ADD13R,0.090000X0.320000*%
%ADD14C,0.179400*%
%ADD15R,0.080000X0.080000*%
%ADD16C,0.080000*%
%ADD17R,0.138100X0.033800*%
%ADD18R,0.033800X0.138100*%
%ADD19O,0.080000X0.080000*%
G04 APERTURE END LIST*
G54D10*
G54D11*
X66000Y-46500D03*
G54D12*
X67000Y-46500D03*
X68000Y-46500D03*
X69000Y-46500D03*
X70000Y-46500D03*
X71000Y-46500D03*
X72000Y-46500D03*
X73000Y-46500D03*
X74000Y-46500D03*
X75000Y-46500D03*
X76000Y-46500D03*
X77000Y-46500D03*
X78000Y-46500D03*
X79000Y-46500D03*
X79000Y-40500D03*
X78000Y-40500D03*
X77000Y-40500D03*
X76000Y-40500D03*
X75000Y-40500D03*
X74000Y-40500D03*
X73000Y-40500D03*
X72000Y-40500D03*
X71000Y-40500D03*
X70000Y-40500D03*
X69000Y-40500D03*
X68000Y-40500D03*
X67000Y-40500D03*
X66000Y-40500D03*
X44500Y-31000D03*
X44500Y-28000D03*
X67500Y-20500D03*
X70500Y-20500D03*
X70500Y-22500D03*
X67500Y-22500D03*
X71000Y-47500D03*
X68000Y-47500D03*
X67500Y-21500D03*
X70500Y-21500D03*
X65000Y-36500D03*
X68000Y-36500D03*
X67500Y-27750D03*
X70500Y-27750D03*
X67500Y-30250D03*
X70500Y-30250D03*
X67500Y-32750D03*
X70500Y-32750D03*
X58250Y-47500D03*
X58250Y-44500D03*
X45500Y-31000D03*
X45500Y-28000D03*
X78000Y-47500D03*
X75000Y-47500D03*
X74000Y-38500D03*
X71000Y-38500D03*
X74000Y-39500D03*
X71000Y-39500D03*
X67500Y-19500D03*
X70500Y-19500D03*
X42000Y-37000D03*
X45000Y-37000D03*
G54D11*
X54500Y-22500D03*
G54D12*
X55500Y-22500D03*
X56500Y-22500D03*
X57500Y-22500D03*
X58500Y-22500D03*
X59500Y-22500D03*
X60500Y-22500D03*
X61500Y-22500D03*
X62500Y-22500D03*
X63500Y-22500D03*
X63500Y-19500D03*
X62500Y-19500D03*
X61500Y-19500D03*
X60500Y-19500D03*
X59500Y-19500D03*
X58500Y-19500D03*
X57500Y-19500D03*
X56500Y-19500D03*
X55500Y-19500D03*
X54500Y-19500D03*
G54D11*
X42500Y-22500D03*
G54D12*
X43500Y-22500D03*
X44500Y-22500D03*
X45500Y-22500D03*
X46500Y-22500D03*
X47500Y-22500D03*
X48500Y-22500D03*
X49500Y-22500D03*
X50500Y-22500D03*
X51500Y-22500D03*
X51500Y-19500D03*
X50500Y-19500D03*
X49500Y-19500D03*
X48500Y-19500D03*
X47500Y-19500D03*
X46500Y-19500D03*
X45500Y-19500D03*
X44500Y-19500D03*
X43500Y-19500D03*
X42500Y-19500D03*
G54D11*
X54500Y-26500D03*
G54D12*
X55500Y-26500D03*
X56500Y-26500D03*
X57500Y-26500D03*
X58500Y-26500D03*
X59500Y-26500D03*
X60500Y-26500D03*
X61500Y-26500D03*
X62500Y-26500D03*
X63500Y-26500D03*
X63500Y-23500D03*
X62500Y-23500D03*
X61500Y-23500D03*
X60500Y-23500D03*
X59500Y-23500D03*
X58500Y-23500D03*
X57500Y-23500D03*
X56500Y-23500D03*
X55500Y-23500D03*
X54500Y-23500D03*
G54D11*
X42500Y-26500D03*
G54D12*
X43500Y-26500D03*
X44500Y-26500D03*
X45500Y-26500D03*
X46500Y-26500D03*
X47500Y-26500D03*
X48500Y-26500D03*
X49500Y-26500D03*
X50500Y-26500D03*
X51500Y-26500D03*
X51500Y-23500D03*
X50500Y-23500D03*
X49500Y-23500D03*
X48500Y-23500D03*
X47500Y-23500D03*
X46500Y-23500D03*
X45500Y-23500D03*
X44500Y-23500D03*
X43500Y-23500D03*
X42500Y-23500D03*
G54D11*
X44500Y-39000D03*
G54D12*
X42500Y-39000D03*
X63500Y-31250D03*
X65500Y-31250D03*
X65500Y-39500D03*
X67500Y-39500D03*
X65000Y-26000D03*
X65000Y-24000D03*
X53000Y-26000D03*
X53000Y-24000D03*
X53000Y-22000D03*
X53000Y-20000D03*
X44500Y-41000D03*
X42500Y-41000D03*
X44500Y-43000D03*
X42500Y-43000D03*
X65500Y-37500D03*
X67500Y-37500D03*
X42500Y-45000D03*
X44500Y-45000D03*
X44500Y-44000D03*
X42500Y-44000D03*
X72000Y-28000D03*
X74000Y-28000D03*
X62000Y-45000D03*
X62000Y-47000D03*
X60250Y-45000D03*
X60250Y-47000D03*
X59250Y-45000D03*
X59250Y-47000D03*
X42500Y-28500D03*
X42500Y-30500D03*
X43500Y-28500D03*
X43500Y-30500D03*
X72000Y-29000D03*
X74000Y-29000D03*
X72000Y-34000D03*
X74000Y-34000D03*
G54D13*
X71000Y-51375D03*
X70000Y-51375D03*
X69000Y-51375D03*
X68000Y-51375D03*
X67000Y-51375D03*
X66000Y-51375D03*
X65000Y-51375D03*
X64000Y-51375D03*
X63000Y-51375D03*
X62000Y-51375D03*
X61000Y-51375D03*
X60000Y-51375D03*
X59000Y-51375D03*
X58000Y-51375D03*
X57000Y-51375D03*
X56000Y-51375D03*
X55000Y-51375D03*
X54000Y-51375D03*
X53000Y-51375D03*
X52000Y-51375D03*
X51000Y-51375D03*
X50000Y-51375D03*
X49000Y-51375D03*
X48000Y-51375D03*
X47000Y-51375D03*
X46000Y-51375D03*
X45000Y-51375D03*
X44000Y-51375D03*
X43000Y-51375D03*
X42000Y-51375D03*
X41000Y-51375D03*
G54D14*
X77073Y-38539D03*
X77073Y-28701D03*
G54D15*
X76073Y-31911D03*
G54D16*
X76073Y-32813D03*
X76073Y-33718D03*
X76073Y-34620D03*
X76073Y-35522D03*
X77073Y-34169D03*
X77073Y-33268D03*
X77073Y-32366D03*
X77073Y-31464D03*
X77073Y-35071D03*
X78073Y-31911D03*
X78073Y-32813D03*
X78073Y-33718D03*
X78073Y-34620D03*
X78073Y-35522D03*
G54D17*
X60642Y-41490D03*
X60642Y-41234D03*
X60642Y-40978D03*
X60642Y-40722D03*
X60642Y-40466D03*
X60642Y-40210D03*
X60642Y-39954D03*
X60642Y-39699D03*
X60642Y-39443D03*
X60642Y-39187D03*
X60642Y-38931D03*
X60642Y-38675D03*
X60642Y-38419D03*
X60642Y-38163D03*
X60642Y-37907D03*
X60642Y-37651D03*
X60642Y-37395D03*
X60642Y-37139D03*
X60642Y-36884D03*
X60642Y-36628D03*
X60642Y-36372D03*
X60642Y-36116D03*
X60642Y-35860D03*
X60642Y-35604D03*
X60642Y-35348D03*
X60642Y-35092D03*
X60642Y-34836D03*
X60642Y-34580D03*
X60642Y-34325D03*
X60642Y-34069D03*
X60642Y-33813D03*
X60642Y-33557D03*
X60642Y-33301D03*
X60642Y-33045D03*
X60642Y-32789D03*
X60642Y-32533D03*
X60642Y-32277D03*
X60642Y-32021D03*
X60642Y-31765D03*
X60642Y-31510D03*
X48358Y-31510D03*
X48358Y-31766D03*
X48358Y-32022D03*
X48358Y-32278D03*
X48358Y-32534D03*
X48358Y-32789D03*
X48358Y-33045D03*
X48358Y-33301D03*
X48358Y-33557D03*
X48358Y-33813D03*
X48358Y-34069D03*
X48358Y-34325D03*
X48358Y-34581D03*
X48358Y-34837D03*
X48358Y-35093D03*
X48358Y-35348D03*
X48358Y-35604D03*
X48358Y-35860D03*
X48358Y-36116D03*
X48358Y-36372D03*
X48358Y-36628D03*
X48358Y-36884D03*
X48358Y-37140D03*
X48358Y-37396D03*
X48358Y-37652D03*
X48358Y-37908D03*
X48358Y-38163D03*
X48358Y-38419D03*
X48358Y-38675D03*
X48358Y-38931D03*
X48358Y-39187D03*
X48358Y-39443D03*
X48358Y-39699D03*
X48358Y-39955D03*
X48358Y-40211D03*
X48358Y-40467D03*
X48358Y-40722D03*
X48358Y-40978D03*
X48358Y-41234D03*
X48358Y-41490D03*
G54D18*
X54372Y-30358D03*
X54116Y-30358D03*
X53860Y-30358D03*
X53604Y-30358D03*
X53348Y-30358D03*
X53092Y-30358D03*
X52837Y-30358D03*
X52581Y-30358D03*
X52325Y-30358D03*
X52069Y-30358D03*
X51813Y-30358D03*
X51557Y-30358D03*
X51301Y-30358D03*
X51045Y-30358D03*
X50789Y-30358D03*
X50533Y-30358D03*
X50278Y-30358D03*
X50022Y-30358D03*
X49766Y-30358D03*
X49510Y-30358D03*
X59490Y-30358D03*
X59234Y-30358D03*
X58978Y-30358D03*
X58722Y-30358D03*
X58467Y-30358D03*
X58211Y-30358D03*
X57955Y-30358D03*
X57699Y-30358D03*
X57443Y-30358D03*
X57187Y-30358D03*
X56931Y-30358D03*
X56675Y-30358D03*
X56419Y-30358D03*
X56163Y-30358D03*
X55908Y-30358D03*
X55652Y-30358D03*
X55396Y-30358D03*
X55140Y-30358D03*
X54884Y-30358D03*
X49510Y-42642D03*
X49766Y-42642D03*
X50022Y-42642D03*
X50278Y-42642D03*
X50533Y-42642D03*
X50789Y-42642D03*
X51045Y-42642D03*
X51301Y-42642D03*
X51557Y-42642D03*
X51813Y-42642D03*
X52069Y-42642D03*
X52325Y-42642D03*
X52581Y-42642D03*
X52837Y-42642D03*
X53092Y-42642D03*
X53348Y-42642D03*
X53604Y-42642D03*
X53860Y-42642D03*
X54116Y-42642D03*
X54372Y-42642D03*
X54628Y-42642D03*
X54884Y-42642D03*
X55140Y-42642D03*
X55396Y-42642D03*
X55652Y-42642D03*
X55907Y-42642D03*
X56163Y-42642D03*
X56419Y-42642D03*
X56675Y-42642D03*
X56931Y-42642D03*
X57187Y-42642D03*
X57443Y-42642D03*
X57699Y-42642D03*
X57955Y-42642D03*
X58211Y-42642D03*
X58466Y-42642D03*
X58722Y-42642D03*
X58978Y-42642D03*
X59234Y-42642D03*
X59490Y-42642D03*
X54628Y-30358D03*
G54D12*
X49461Y-46000D03*
X47539Y-46000D03*
X65000Y-22000D03*
X65000Y-20000D03*
X51500Y-45000D03*
X51500Y-47000D03*
G54D11*
X43000Y-48250D03*
G54D12*
X41000Y-48250D03*
G54D11*
X72000Y-48250D03*
G54D12*
X74000Y-48250D03*
G54D11*
X69000Y-36500D03*
G54D12*
X71000Y-36500D03*
X72000Y-31500D03*
X74000Y-31500D03*
X72000Y-27000D03*
X74000Y-27000D03*
X72000Y-26000D03*
X74000Y-26000D03*
G54D19*
X72500Y-24000D03*
G54D16*
X73500Y-24000D03*
G54D12*
X67000Y-29000D03*
X71000Y-29000D03*
X67000Y-31500D03*
X71000Y-31500D03*
X67000Y-34000D03*
X71000Y-34000D03*
X71000Y-23750D03*
X67000Y-23750D03*
X71000Y-25125D03*
X67000Y-25125D03*
X71000Y-26500D03*
X67000Y-26500D03*
X45500Y-42000D03*
X41500Y-42000D03*
X41500Y-46000D03*
X45500Y-46000D03*
X65500Y-38500D03*
X69500Y-38500D03*
M02*
