G04 (created by PCBNEW-RS274X (2012-01-19 BZR 3256)-stable) date 3/15/2013 12:17:24 AM*
G01*
G70*
G90*
%MOIN*%
G04 Gerber Fmt 3.4, Leading zero omitted, Abs format*
%FSLAX34Y34*%
G04 APERTURE LIST*
%ADD10C,0.006000*%
%ADD11C,0.015000*%
G04 APERTURE END LIST*
G54D10*
G54D11*
X40000Y-52750D02*
X40000Y-19500D01*
X81000Y-49000D02*
X81000Y-19500D01*
X41000Y-18500D02*
X40913Y-18504D01*
X40827Y-18516D01*
X40742Y-18535D01*
X40658Y-18561D01*
X40578Y-18594D01*
X40501Y-18634D01*
X40427Y-18681D01*
X40358Y-18734D01*
X40293Y-18793D01*
X40234Y-18858D01*
X40181Y-18927D01*
X40134Y-19001D01*
X40094Y-19078D01*
X40061Y-19158D01*
X40035Y-19242D01*
X40016Y-19327D01*
X40004Y-19413D01*
X40000Y-19500D01*
X41000Y-18500D02*
X80000Y-18500D01*
X80000Y-50000D02*
X72000Y-50000D01*
X80000Y-50000D02*
X80087Y-49996D01*
X80173Y-49984D01*
X80258Y-49965D01*
X80342Y-49939D01*
X80422Y-49906D01*
X80500Y-49866D01*
X80573Y-49819D01*
X80642Y-49766D01*
X80707Y-49707D01*
X80766Y-49642D01*
X80819Y-49573D01*
X80866Y-49499D01*
X80906Y-49422D01*
X80939Y-49342D01*
X80965Y-49258D01*
X80984Y-49173D01*
X80996Y-49087D01*
X81000Y-49000D01*
X81000Y-19500D02*
X80996Y-19413D01*
X80984Y-19327D01*
X80965Y-19242D01*
X80939Y-19158D01*
X80906Y-19078D01*
X80866Y-19001D01*
X80819Y-18927D01*
X80766Y-18858D01*
X80707Y-18793D01*
X80642Y-18734D01*
X80573Y-18681D01*
X80500Y-18634D01*
X80422Y-18594D01*
X80342Y-18561D01*
X80258Y-18535D01*
X80173Y-18516D01*
X80087Y-18504D01*
X80000Y-18500D01*
X72000Y-52750D02*
X72000Y-50000D01*
X40250Y-53000D02*
X71750Y-53000D01*
X71750Y-53000D02*
X71771Y-52999D01*
X71793Y-52996D01*
X71814Y-52991D01*
X71835Y-52984D01*
X71855Y-52976D01*
X71875Y-52966D01*
X71893Y-52954D01*
X71910Y-52941D01*
X71926Y-52926D01*
X71941Y-52910D01*
X71954Y-52893D01*
X71966Y-52874D01*
X71976Y-52855D01*
X71984Y-52835D01*
X71991Y-52814D01*
X71996Y-52793D01*
X71999Y-52771D01*
X72000Y-52750D01*
X40000Y-52750D02*
X40001Y-52771D01*
X40004Y-52793D01*
X40009Y-52814D01*
X40016Y-52835D01*
X40024Y-52855D01*
X40034Y-52874D01*
X40046Y-52893D01*
X40059Y-52910D01*
X40074Y-52926D01*
X40090Y-52941D01*
X40107Y-52954D01*
X40126Y-52966D01*
X40145Y-52976D01*
X40165Y-52984D01*
X40186Y-52991D01*
X40207Y-52996D01*
X40229Y-52999D01*
X40250Y-53000D01*
M02*
