M48
INCH,TZ
T1C0.025
T2C0.032
T3C0.040
T4C0.041
T5C0.120
%
G90
G05
T1
X041500Y-035375
X042000Y-035375
X042000Y-047000
X042000Y-048250
X042500Y-046500
X042500Y-047000
X044000Y-023000
X045000Y-029500
X045500Y-029500
X048358Y-031125
X050875Y-043875
X051000Y-027250
X051000Y-028000
X051175Y-029175
X051250Y-031500
X051500Y-040500
X052000Y-040000
X052000Y-040500
X052000Y-041625
X052125Y-039375
X052625Y-039375
X052625Y-039875
X053250Y-031500
X053750Y-038250
X053750Y-038750
X054000Y-027750
X054250Y-038750
X054250Y-039250
X054625Y-033301
X054750Y-039250
X054750Y-039750
X055250Y-039750
X055500Y-035625
X055625Y-040500
X055750Y-021000
X056000Y-031500
X056125Y-037750
X056500Y-021000
X056500Y-038000
X056875Y-028375
X056875Y-038375
X056875Y-041375
X057000Y-031500
X057375Y-028375
X057375Y-038375
X057500Y-033250
X057625Y-037375
X057625Y-049125
X057750Y-033875
X057875Y-028375
X058000Y-022000
X058125Y-033250
X058125Y-046125
X058125Y-046625
X058500Y-032625
X058625Y-049125
X058875Y-035500
X059125Y-047625
X059250Y-035000
X059375Y-031750
X059625Y-032225
X059625Y-034275
X059625Y-035500
X060125Y-049125
X060625Y-049125
X060750Y-046250
X061125Y-042000
X061375Y-045375
X061625Y-048625
X061875Y-037125
X061875Y-037750
X062250Y-048750
X062625Y-045875
X062875Y-046250
X062875Y-048250
X065000Y-029500
X065000Y-030000
X065375Y-045500
X065375Y-046000
X065500Y-029500
X066375Y-033000
X066875Y-032500
X066875Y-033000
X075250Y-032125
X075250Y-033250
X076500Y-041000
X076500Y-043500
X076500Y-046000
X077500Y-041000
X077500Y-043500
X077500Y-046000
X079500Y-020000
X079500Y-049000
X080000Y-020000
X080000Y-020500
X080000Y-048500
X080000Y-049000
T2
X041000Y-048250
X041500Y-042000
X041500Y-046000
X042000Y-037000
X042500Y-019500
X042500Y-022500
X042500Y-023500
X042500Y-026500
X042500Y-028500
X042500Y-030500
X042500Y-039000
X042500Y-041000
X042500Y-043000
X042500Y-044000
X042500Y-045000
X043000Y-048250
X043500Y-019500
X043500Y-022500
X043500Y-023500
X043500Y-026500
X043500Y-028500
X043500Y-030500
X044500Y-019500
X044500Y-022500
X044500Y-023500
X044500Y-026500
X044500Y-028000
X044500Y-031000
X044500Y-039000
X044500Y-041000
X044500Y-043000
X044500Y-044000
X044500Y-045000
X045000Y-037000
X045500Y-019500
X045500Y-022500
X045500Y-023500
X045500Y-026500
X045500Y-028000
X045500Y-031000
X045500Y-042000
X045500Y-046000
X046500Y-019500
X046500Y-022500
X046500Y-023500
X046500Y-026500
X047500Y-019500
X047500Y-022500
X047500Y-023500
X047500Y-026500
X047539Y-046000
X048500Y-019500
X048500Y-022500
X048500Y-023500
X048500Y-026500
X049461Y-046000
X049500Y-019500
X049500Y-022500
X049500Y-023500
X049500Y-026500
X050500Y-019500
X050500Y-022500
X050500Y-023500
X050500Y-026500
X051500Y-019500
X051500Y-022500
X051500Y-023500
X051500Y-026500
X051500Y-045000
X051500Y-047000
X053000Y-020000
X053000Y-022000
X053000Y-024000
X053000Y-026000
X054500Y-019500
X054500Y-022500
X054500Y-023500
X054500Y-026500
X055500Y-019500
X055500Y-022500
X055500Y-023500
X055500Y-026500
X056500Y-019500
X056500Y-022500
X056500Y-023500
X056500Y-026500
X057500Y-019500
X057500Y-022500
X057500Y-023500
X057500Y-026500
X058250Y-044500
X058250Y-047500
X058500Y-019500
X058500Y-022500
X058500Y-023500
X058500Y-026500
X059250Y-045000
X059250Y-047000
X059500Y-019500
X059500Y-022500
X059500Y-023500
X059500Y-026500
X060250Y-045000
X060250Y-047000
X060500Y-019500
X060500Y-022500
X060500Y-023500
X060500Y-026500
X061500Y-019500
X061500Y-022500
X061500Y-023500
X061500Y-026500
X062000Y-045000
X062000Y-047000
X062500Y-019500
X062500Y-022500
X062500Y-023500
X062500Y-026500
X063500Y-019500
X063500Y-022500
X063500Y-023500
X063500Y-026500
X063500Y-031250
X065000Y-020000
X065000Y-022000
X065000Y-024000
X065000Y-026000
X065000Y-036500
X065500Y-031250
X065500Y-037500
X065500Y-038500
X065500Y-039500
X066000Y-040500
X066000Y-046500
X067000Y-023750
X067000Y-025125
X067000Y-026500
X067000Y-029000
X067000Y-031500
X067000Y-034000
X067000Y-040500
X067000Y-046500
X067500Y-019500
X067500Y-020500
X067500Y-021500
X067500Y-022500
X067500Y-027750
X067500Y-030250
X067500Y-032750
X067500Y-037500
X067500Y-039500
X068000Y-036500
X068000Y-040500
X068000Y-046500
X068000Y-047500
X069000Y-036500
X069000Y-040500
X069000Y-046500
X069500Y-038500
X070000Y-040500
X070000Y-046500
X070500Y-019500
X070500Y-020500
X070500Y-021500
X070500Y-022500
X070500Y-027750
X070500Y-030250
X070500Y-032750
X071000Y-023750
X071000Y-025125
X071000Y-026500
X071000Y-029000
X071000Y-031500
X071000Y-034000
X071000Y-036500
X071000Y-038500
X071000Y-039500
X071000Y-040500
X071000Y-046500
X071000Y-047500
X072000Y-026000
X072000Y-027000
X072000Y-028000
X072000Y-029000
X072000Y-031500
X072000Y-034000
X072000Y-040500
X072000Y-046500
X072000Y-048250
X073000Y-040500
X073000Y-046500
X074000Y-026000
X074000Y-027000
X074000Y-028000
X074000Y-029000
X074000Y-031500
X074000Y-034000
X074000Y-038500
X074000Y-039500
X074000Y-040500
X074000Y-046500
X074000Y-048250
X075000Y-040500
X075000Y-046500
X075000Y-047500
X076000Y-040500
X076000Y-046500
X077000Y-040500
X077000Y-046500
X078000Y-040500
X078000Y-046500
X078000Y-047500
X079000Y-040500
X079000Y-046500
T3
X072500Y-024000
X073500Y-024000
T4
X076073Y-031911
X076073Y-032813
X076073Y-033718
X076073Y-034620
X076073Y-035522
X077073Y-031464
X077073Y-032366
X077073Y-033268
X077073Y-034169
X077073Y-035071
X078073Y-031911
X078073Y-032813
X078073Y-033718
X078073Y-034620
X078073Y-035522
T5
X077073Y-028701
X077073Y-038539
T0
M30
