M48
; DRILL file {KiCad (5.1.8)-1} date 06/29/21 12:52:20
; FORMAT={-:-/ absolute / inch / decimal}
; #@! TF.CreationDate,2021-06-29T12:52:20-07:00
; #@! TF.GenerationSoftware,Kicad,Pcbnew,(5.1.8)-1
FMAT,2
INCH
T1C0.0250
T2C0.0320
T3C0.0400
T4C0.0410
T5C0.1201
%
G90
G05
T1
X4.15Y-3.5375
X4.2Y-3.5375
X4.2Y-4.7
X4.2Y-4.825
X4.25Y-4.65
X4.25Y-4.7
X4.4Y-2.3
X4.5Y-2.95
X4.55Y-2.95
X4.8358Y-3.1125
X5.0875Y-4.3875
X5.1Y-2.725
X5.1Y-2.8
X5.1175Y-2.9175
X5.125Y-3.15
X5.15Y-4.05
X5.2Y-4.0
X5.2Y-4.05
X5.2Y-4.1625
X5.2125Y-3.9375
X5.2625Y-3.9375
X5.2625Y-3.9875
X5.325Y-3.15
X5.375Y-3.825
X5.375Y-3.875
X5.4Y-2.775
X5.425Y-3.875
X5.425Y-3.925
X5.4625Y-3.3301
X5.475Y-3.925
X5.475Y-3.975
X5.525Y-3.975
X5.55Y-3.5625
X5.5625Y-4.05
X5.575Y-2.1
X5.6Y-3.15
X5.6125Y-3.775
X5.65Y-2.1
X5.65Y-3.8
X5.6875Y-2.8375
X5.6875Y-3.8375
X5.6875Y-4.1375
X5.7Y-3.15
X5.7375Y-2.8375
X5.7375Y-3.8375
X5.75Y-3.325
X5.7625Y-3.7375
X5.7625Y-4.9125
X5.775Y-3.3875
X5.7875Y-2.8375
X5.8Y-2.2
X5.8125Y-3.325
X5.8125Y-4.6125
X5.8125Y-4.6625
X5.85Y-3.2625
X5.8625Y-4.9125
X5.8875Y-3.55
X5.9125Y-4.7625
X5.925Y-3.5
X5.9375Y-3.175
X5.9625Y-3.2225
X5.9625Y-3.4275
X5.9625Y-3.55
X6.0125Y-4.9125
X6.0625Y-4.9125
X6.075Y-4.625
X6.1125Y-4.2
X6.1375Y-4.5375
X6.1625Y-4.8625
X6.1875Y-3.7125
X6.1875Y-3.775
X6.225Y-4.875
X6.2375Y-4.5875
X6.2875Y-4.6
X6.5Y-2.95
X6.5Y-3.0
X6.5375Y-4.55
X6.5375Y-4.6
X6.55Y-2.95
X6.6375Y-3.3
X6.6875Y-3.25
X6.6875Y-3.3
X7.475Y-3.275
X7.65Y-4.1
X7.65Y-4.35
X7.65Y-4.6
X7.75Y-4.1
X7.75Y-4.35
X7.75Y-4.6
X7.95Y-2.0
X7.95Y-4.9
X8.0Y-2.0
X8.0Y-2.05
X8.0Y-4.85
X8.0Y-4.9
T2
X6.75Y-3.025
X7.05Y-3.025
X4.25Y-4.1
X4.45Y-4.1
X6.5Y-2.4
X6.5Y-2.6
X7.5Y-4.75
X7.8Y-4.75
X7.2Y-2.7
X7.4Y-2.7
X6.7Y-3.15
X7.1Y-3.15
X6.7Y-2.375
X7.1Y-2.375
X4.25Y-2.85
X4.25Y-3.05
X7.2Y-2.8
X7.4Y-2.8
X6.75Y-2.775
X7.05Y-2.775
X5.45Y-2.35
X5.45Y-2.65
X5.55Y-2.35
X5.55Y-2.65
X5.65Y-2.35
X5.65Y-2.65
X5.75Y-2.35
X5.75Y-2.65
X5.85Y-2.35
X5.85Y-2.65
X5.95Y-2.35
X5.95Y-2.65
X6.05Y-2.35
X6.05Y-2.65
X6.15Y-2.35
X6.15Y-2.65
X6.25Y-2.35
X6.25Y-2.65
X6.35Y-2.35
X6.35Y-2.65
X6.55Y-3.95
X6.75Y-3.95
X7.1Y-3.85
X7.4Y-3.85
X6.9Y-3.65
X7.1Y-3.65
X5.925Y-4.5
X5.925Y-4.7
X7.2Y-4.825
X7.4Y-4.825
X6.025Y-4.5
X6.025Y-4.7
X4.45Y-2.8
X4.45Y-3.1
X6.5Y-3.65
X6.8Y-3.65
X6.75Y-1.95
X7.05Y-1.95
X4.25Y-2.35
X4.25Y-2.65
X4.35Y-2.35
X4.35Y-2.65
X4.45Y-2.35
X4.45Y-2.65
X4.55Y-2.35
X4.55Y-2.65
X4.65Y-2.35
X4.65Y-2.65
X4.75Y-2.35
X4.75Y-2.65
X4.85Y-2.35
X4.85Y-2.65
X4.95Y-2.35
X4.95Y-2.65
X5.05Y-2.35
X5.05Y-2.65
X5.15Y-2.35
X5.15Y-2.65
X6.55Y-3.75
X6.75Y-3.75
X4.15Y-4.2
X4.55Y-4.2
X7.2Y-2.6
X7.4Y-2.6
X6.5Y-2.0
X6.5Y-2.2
X6.2Y-4.5
X6.2Y-4.7
X4.55Y-2.8
X4.55Y-3.1
X6.75Y-2.15
X7.05Y-2.15
X5.3Y-2.0
X5.3Y-2.2
X5.45Y-1.95
X5.45Y-2.25
X5.55Y-1.95
X5.55Y-2.25
X5.65Y-1.95
X5.65Y-2.25
X5.75Y-1.95
X5.75Y-2.25
X5.85Y-1.95
X5.85Y-2.25
X5.95Y-1.95
X5.95Y-2.25
X6.05Y-1.95
X6.05Y-2.25
X6.15Y-1.95
X6.15Y-2.25
X6.25Y-1.95
X6.25Y-2.25
X6.35Y-1.95
X6.35Y-2.25
X6.7Y-2.65
X7.1Y-2.65
X6.7Y-2.9
X7.1Y-2.9
X4.35Y-2.85
X4.35Y-3.05
X7.2Y-3.4
X7.4Y-3.4
X6.6Y-4.05
X6.6Y-4.65
X6.7Y-4.05
X6.7Y-4.65
X6.8Y-4.05
X6.8Y-4.65
X6.9Y-4.05
X6.9Y-4.65
X7.0Y-4.05
X7.0Y-4.65
X7.1Y-4.05
X7.1Y-4.65
X7.2Y-4.05
X7.2Y-4.65
X7.3Y-4.05
X7.3Y-4.65
X7.4Y-4.05
X7.4Y-4.65
X7.5Y-4.05
X7.5Y-4.65
X7.6Y-4.05
X7.6Y-4.65
X7.7Y-4.05
X7.7Y-4.65
X7.8Y-4.05
X7.8Y-4.65
X7.9Y-4.05
X7.9Y-4.65
X5.825Y-4.45
X5.825Y-4.75
X4.25Y-3.9
X4.45Y-3.9
X4.25Y-1.95
X4.25Y-2.25
X4.35Y-1.95
X4.35Y-2.25
X4.45Y-1.95
X4.45Y-2.25
X4.55Y-1.95
X4.55Y-2.25
X4.65Y-1.95
X4.65Y-2.25
X4.75Y-1.95
X4.75Y-2.25
X4.85Y-1.95
X4.85Y-2.25
X4.95Y-1.95
X4.95Y-2.25
X5.05Y-1.95
X5.05Y-2.25
X5.15Y-1.95
X5.15Y-2.25
X6.7Y-3.4
X7.1Y-3.4
X4.25Y-4.4
X4.45Y-4.4
X6.8Y-4.75
X7.1Y-4.75
X6.75Y-3.275
X7.05Y-3.275
X7.1Y-3.95
X7.4Y-3.95
X6.35Y-3.125
X6.55Y-3.125
X6.7Y-2.5125
X7.1Y-2.5125
X6.55Y-3.85
X6.95Y-3.85
X4.25Y-4.5
X4.45Y-4.5
X4.1Y-4.825
X4.3Y-4.825
X6.75Y-2.05
X7.05Y-2.05
X6.75Y-2.25
X7.05Y-2.25
X4.25Y-4.3
X4.45Y-4.3
X5.3Y-2.4
X5.3Y-2.6
X4.2Y-3.7
X4.5Y-3.7
X7.2Y-3.15
X7.4Y-3.15
X4.15Y-4.6
X4.55Y-4.6
X4.7539Y-4.6
X4.9461Y-4.6
X7.2Y-2.9
X7.4Y-2.9
X5.15Y-4.5
X5.15Y-4.7
T3
X7.25Y-2.4
X7.35Y-2.4
T4
X7.575Y-3.1411
X7.575Y-3.2313
X7.575Y-3.3218
X7.575Y-3.412
X7.575Y-3.5022
X7.675Y-3.0964
X7.675Y-3.1866
X7.675Y-3.2768
X7.675Y-3.3669
X7.675Y-3.4571
X7.775Y-3.1411
X7.775Y-3.2313
X7.775Y-3.3218
X7.775Y-3.412
X7.775Y-3.5022
T5
X7.675Y-2.8201
X7.675Y-3.8039
T0
M30
